<svg width="238" height="75" viewBox="0 0 238 75" fill="none" xmlns="http://www.w3.org/2000/svg">
<g filter="url(#filter0_d_80_598)">
<mask id="path-1-inside-1_80_598" fill="white">
<path fill-rule="evenodd" clip-rule="evenodd" d="M35 70.5291C42.6563 70.5291 49.7384 68.0707 55.5 63.9003C61.2616 68.0707 68.3437 70.5291 76 70.5291C83.6563 70.5291 90.7384 68.0707 96.5 63.9003C102.262 68.0707 109.344 70.5291 117 70.5291C124.656 70.5291 131.738 68.0707 137.5 63.9003C143.262 68.0707 150.344 70.5291 158 70.5291C165.656 70.5291 172.738 68.0707 178.5 63.9003C184.262 68.0707 191.344 70.5291 199 70.5291C218.33 70.5291 234 54.859 234 35.5291C234 16.1991 218.33 0.529053 199 0.529053C191.344 0.529053 184.262 2.9874 178.5 7.15779C172.738 2.9874 165.656 0.529053 158 0.529053C150.344 0.529053 143.262 2.9874 137.5 7.15779C131.738 2.9874 124.656 0.529053 117 0.529053C109.344 0.529053 102.262 2.9874 96.5 7.1578C90.7384 2.9874 83.6563 0.529053 76 0.529053C68.3437 0.529053 61.2616 2.9874 55.5 7.1578C49.7384 2.9874 42.6563 0.529053 35 0.529053C15.67 0.529053 0 16.1991 0 35.5291C0 54.859 15.67 70.5291 35 70.5291Z"/>
</mask>
<path fill-rule="evenodd" clip-rule="evenodd" d="M35 70.5291C42.6563 70.5291 49.7384 68.0707 55.5 63.9003C61.2616 68.0707 68.3437 70.5291 76 70.5291C83.6563 70.5291 90.7384 68.0707 96.5 63.9003C102.262 68.0707 109.344 70.5291 117 70.5291C124.656 70.5291 131.738 68.0707 137.5 63.9003C143.262 68.0707 150.344 70.5291 158 70.5291C165.656 70.5291 172.738 68.0707 178.5 63.9003C184.262 68.0707 191.344 70.5291 199 70.5291C218.33 70.5291 234 54.859 234 35.5291C234 16.1991 218.33 0.529053 199 0.529053C191.344 0.529053 184.262 2.9874 178.5 7.15779C172.738 2.9874 165.656 0.529053 158 0.529053C150.344 0.529053 143.262 2.9874 137.5 7.15779C131.738 2.9874 124.656 0.529053 117 0.529053C109.344 0.529053 102.262 2.9874 96.5 7.1578C90.7384 2.9874 83.6563 0.529053 76 0.529053C68.3437 0.529053 61.2616 2.9874 55.5 7.1578C49.7384 2.9874 42.6563 0.529053 35 0.529053C15.67 0.529053 0 16.1991 0 35.5291C0 54.859 15.67 70.5291 35 70.5291Z" fill="url(#paint0_linear_80_598)"/>
<path d="M55.5 63.9003L56.0863 63.0902L55.5 62.6658L54.9137 63.0902L55.5 63.9003ZM96.5 63.9003L97.0863 63.0902L96.5 62.6658L95.9137 63.0902L96.5 63.9003ZM137.5 63.9003L138.086 63.0902L137.5 62.6658L136.914 63.0902L137.5 63.9003ZM178.5 63.9003L179.086 63.0902L178.5 62.6658L177.914 63.0902L178.5 63.9003ZM178.5 7.15779L177.914 7.96786L178.5 8.39227L179.086 7.96786L178.5 7.15779ZM137.5 7.15779L136.914 7.96786L137.5 8.39227L138.086 7.96786L137.5 7.15779ZM96.5 7.1578L95.9137 7.96786L96.5 8.39227L97.0863 7.96786L96.5 7.1578ZM55.5 7.1578L54.9137 7.96786L55.5 8.39227L56.0863 7.96786L55.5 7.1578ZM54.9137 63.0902C49.3169 67.1413 42.4388 69.5291 35 69.5291V71.5291C42.8738 71.5291 50.1598 69.0001 56.0863 64.7104L54.9137 63.0902ZM76 69.5291C68.5612 69.5291 61.6831 67.1413 56.0863 63.0902L54.9137 64.7104C60.8402 69.0001 68.1262 71.5291 76 71.5291V69.5291ZM95.9137 63.0902C90.3169 67.1413 83.4388 69.5291 76 69.5291V71.5291C83.8738 71.5291 91.1598 69.0001 97.0863 64.7104L95.9137 63.0902ZM117 69.5291C109.561 69.5291 102.683 67.1413 97.0863 63.0902L95.9137 64.7104C101.84 69.0001 109.126 71.5291 117 71.5291V69.5291ZM136.914 63.0902C131.317 67.1413 124.439 69.5291 117 69.5291V71.5291C124.874 71.5291 132.16 69.0001 138.086 64.7104L136.914 63.0902ZM158 69.5291C150.561 69.5291 143.683 67.1413 138.086 63.0902L136.914 64.7104C142.84 69.0001 150.126 71.5291 158 71.5291V69.5291ZM177.914 63.0902C172.317 67.1413 165.439 69.5291 158 69.5291V71.5291C165.874 71.5291 173.16 69.0001 179.086 64.7104L177.914 63.0902ZM199 69.5291C191.561 69.5291 184.683 67.1413 179.086 63.0902L177.914 64.7104C183.84 69.0001 191.126 71.5291 199 71.5291V69.5291ZM233 35.5291C233 54.3067 217.778 69.5291 199 69.5291V71.5291C218.882 71.5291 235 55.4113 235 35.5291H233ZM199 1.52905C217.778 1.52905 233 16.7514 233 35.5291H235C235 15.6468 218.882 -0.470947 199 -0.470947V1.52905ZM179.086 7.96786C184.683 3.91679 191.561 1.52905 199 1.52905V-0.470947C191.126 -0.470947 183.84 2.058 177.914 6.34773L179.086 7.96786ZM158 1.52905C165.439 1.52905 172.317 3.91679 177.914 7.96786L179.086 6.34773C173.16 2.058 165.874 -0.470947 158 -0.470947V1.52905ZM138.086 7.96786C143.683 3.91679 150.561 1.52905 158 1.52905V-0.470947C150.126 -0.470947 142.84 2.058 136.914 6.34773L138.086 7.96786ZM117 1.52905C124.439 1.52905 131.317 3.91679 136.914 7.96786L138.086 6.34773C132.16 2.058 124.874 -0.470947 117 -0.470947V1.52905ZM97.0863 7.96786C102.683 3.91679 109.561 1.52905 117 1.52905V-0.470947C109.126 -0.470947 101.84 2.058 95.9137 6.34773L97.0863 7.96786ZM76 1.52905C83.4388 1.52905 90.3169 3.91679 95.9137 7.96786L97.0863 6.34773C91.1598 2.058 83.8738 -0.470947 76 -0.470947V1.52905ZM56.0863 7.96786C61.6831 3.91679 68.5612 1.52905 76 1.52905V-0.470947C68.1262 -0.470947 60.8402 2.058 54.9137 6.34773L56.0863 7.96786ZM35 1.52905C42.4388 1.52905 49.3169 3.91679 54.9137 7.96786L56.0863 6.34773C50.1598 2.058 42.8738 -0.470947 35 -0.470947V1.52905ZM1 35.5291C1 16.7514 16.2223 1.52905 35 1.52905V-0.470947C15.1177 -0.470947 -1 15.6468 -1 35.5291H1ZM35 69.5291C16.2223 69.5291 1 54.3067 1 35.5291H-1C-1 55.4113 15.1177 71.5291 35 71.5291V69.5291Z" fill="#3E3E3E" mask="url(#path-1-inside-1_80_598)"/>
</g>
<g style="mix-blend-mode:lighten">
<path d="M33.575 26.4739V23.8664H35.7275V26.4739H33.575ZM33.61 48.5414V45.9864H35.78V48.5414H33.61ZM35.15 46.6514C32.665 46.6514 30.6525 46.2023 29.1125 45.3039C27.5725 44.3939 26.6158 42.7781 26.2425 40.4564L29.375 39.3889C29.5733 41.1389 30.1683 42.3931 31.16 43.1514C32.1633 43.9098 33.5108 44.2889 35.2025 44.2889C36.8008 44.2889 37.9967 44.0089 38.79 43.4489C39.595 42.8773 39.9975 42.1306 39.9975 41.2089C39.9975 39.9023 39.385 39.0214 38.16 38.5664C36.935 38.1114 35.395 37.6798 33.54 37.2714C31.4283 36.8164 29.7075 36.1689 28.3775 35.3289C27.0592 34.4773 26.4 33.0656 26.4 31.0939C26.4 29.2973 27.1292 27.9323 28.5875 26.9989C30.0458 26.0539 32.0525 25.5814 34.6075 25.5814C37.1275 25.5814 39.1225 26.0423 40.5925 26.9639C42.0625 27.8739 42.9667 29.3964 43.305 31.5314L40.1725 32.5989C39.9742 31.0589 39.3967 29.8981 38.44 29.1164C37.4833 28.3231 36.1883 27.9264 34.555 27.9264C32.98 27.9264 31.8075 28.2123 31.0375 28.7839C30.2792 29.3439 29.9 30.1139 29.9 31.0939C29.9 32.2956 30.4775 33.1239 31.6325 33.5789C32.7992 34.0223 34.2808 34.4423 36.0775 34.8389C38.1775 35.2706 39.9392 35.8831 41.3625 36.6764C42.7975 37.4698 43.515 38.8989 43.515 40.9639C43.515 42.8773 42.8033 44.3064 41.38 45.2514C39.9683 46.1848 37.8917 46.6514 35.15 46.6514ZM60.4998 48.1739C56.9998 48.1739 54.5848 47.4739 53.2548 46.0739C51.9365 44.6739 51.2773 42.4048 51.2773 39.2664H54.8648C54.8648 41.9381 55.3431 43.6823 56.2998 44.4989C57.2565 45.3039 58.6506 45.7064 60.4823 45.7064C62.3023 45.7064 63.6965 45.3681 64.6648 44.6914C65.6448 44.0148 66.1348 43.0989 66.1348 41.9439C66.1348 40.5323 65.5398 39.5464 64.3498 38.9864C63.1598 38.4264 61.4856 37.8839 59.3273 37.3589C56.4456 36.6473 54.3865 35.8539 53.1498 34.9789C51.9131 34.1039 51.2948 32.6864 51.2948 30.7264C51.2948 28.9298 51.9773 27.3956 53.3423 26.1239C54.7073 24.8406 57.0815 24.1989 60.4648 24.1989C63.9181 24.1989 66.3098 24.9164 67.6398 26.3514C68.9815 27.7748 69.6523 29.9798 69.6523 32.9664H66.0648C66.0648 30.3648 65.569 28.6673 64.5773 27.8739C63.5973 27.0689 62.2148 26.6664 60.4298 26.6664C58.6098 26.6664 57.2098 27.0106 56.2298 27.6989C55.2498 28.3756 54.7598 29.2564 54.7598 30.3414C54.7598 31.7064 55.3548 32.6806 56.5448 33.2639C57.7465 33.8473 59.409 34.3956 61.5323 34.9089C64.484 35.6323 66.5781 36.4081 67.8148 37.2364C69.0515 38.0531 69.6698 39.4589 69.6698 41.4539C69.6698 43.3439 68.999 44.9364 67.6573 46.2314C66.3156 47.5264 63.9298 48.1739 60.4998 48.1739ZM85.1343 48.0164V26.8764H77.8893V24.3914H95.9493V26.8764H88.7218V48.0164H85.1343ZM113.949 48.1914C110.472 48.1914 107.917 47.2348 106.284 45.3214C104.662 43.4081 103.851 40.3689 103.851 36.2039C103.851 32.0506 104.662 29.0114 106.284 27.0864C107.905 25.1614 110.46 24.1989 113.949 24.1989C117.425 24.1989 119.974 25.1614 121.596 27.0864C123.229 29.0114 124.046 32.0506 124.046 36.2039C124.046 40.3689 123.229 43.4081 121.596 45.3214C119.974 47.2348 117.425 48.1914 113.949 48.1914ZM113.949 45.7064C115.885 45.7064 117.454 45.0823 118.656 43.8339C119.869 42.5856 120.476 40.0423 120.476 36.2039C120.476 32.3423 119.869 29.7931 118.656 28.5564C117.454 27.3081 115.885 26.6839 113.949 26.6839C112.012 26.6839 110.437 27.3081 109.224 28.5564C108.022 29.7931 107.421 32.3423 107.421 36.2039C107.421 40.0423 108.022 42.5856 109.224 43.8339C110.437 45.0823 112.012 45.7064 113.949 45.7064ZM133.014 48.0164V24.3914H138.841L150.181 46.3014H149.691L149.709 24.3914H153.279V48.0164H147.486L136.164 26.0714H136.566V48.0164H133.014ZM163.111 48.0164V24.3914H166.663V35.2589L176.078 24.3914H180.156L169.918 36.2214L180.208 48.0164H176.131L166.663 37.1839V48.0164H163.111ZM197.516 48.1739C194.016 48.1739 191.601 47.4739 190.271 46.0739C188.953 44.6739 188.294 42.4048 188.294 39.2664H191.881C191.881 41.9381 192.36 43.6823 193.316 44.4989C194.273 45.3039 195.667 45.7064 197.499 45.7064C199.319 45.7064 200.713 45.3681 201.681 44.6914C202.661 44.0148 203.151 43.0989 203.151 41.9439C203.151 40.5323 202.556 39.5464 201.366 38.9864C200.176 38.4264 198.502 37.8839 196.344 37.3589C193.462 36.6473 191.403 35.8539 190.166 34.9789C188.93 34.1039 188.311 32.6864 188.311 30.7264C188.311 28.9298 188.994 27.3956 190.359 26.1239C191.724 24.8406 194.098 24.1989 197.481 24.1989C200.935 24.1989 203.326 24.9164 204.656 26.3514C205.998 27.7748 206.669 29.9798 206.669 32.9664H203.081C203.081 30.3648 202.586 28.6673 201.594 27.8739C200.614 27.0689 199.231 26.6664 197.446 26.6664C195.626 26.6664 194.226 27.0106 193.246 27.6989C192.266 28.3756 191.776 29.2564 191.776 30.3414C191.776 31.7064 192.371 32.6806 193.561 33.2639C194.763 33.8473 196.426 34.3956 198.549 34.9089C201.501 35.6323 203.595 36.4081 204.831 37.2364C206.068 38.0531 206.686 39.4589 206.686 41.4539C206.686 43.3439 206.016 44.9364 204.674 46.2314C203.332 47.5264 200.946 48.1739 197.516 48.1739Z" fill="#3A3A3A"/>
</g>
<defs>
<filter id="filter0_d_80_598" x="0" y="0.529053" width="238" height="74" filterUnits="userSpaceOnUse" color-interpolation-filters="sRGB">
<feFlood flood-opacity="0" result="BackgroundImageFix"/>
<feColorMatrix in="SourceAlpha" type="matrix" values="0 0 0 0 0 0 0 0 0 0 0 0 0 0 0 0 0 0 127 0" result="hardAlpha"/>
<feOffset dx="4" dy="4"/>
<feComposite in2="hardAlpha" operator="out"/>
<feColorMatrix type="matrix" values="0 0 0 0 0.135514 0 0 0 0 0.135514 0 0 0 0 0.135514 0 0 0 1 0"/>
<feBlend mode="normal" in2="BackgroundImageFix" result="effect1_dropShadow_80_598"/>
<feBlend mode="normal" in="SourceGraphic" in2="effect1_dropShadow_80_598" result="shape"/>
</filter>
<linearGradient id="paint0_linear_80_598" x1="117" y1="0.529053" x2="117" y2="70.5291" gradientUnits="userSpaceOnUse">
<stop stop-color="#242424"/>
<stop offset="1" stop-color="#1C1C1C"/>
</linearGradient>
</defs>
</svg>
