<svg width="542" height="270" viewBox="0 0 542 270" fill="none" xmlns="http://www.w3.org/2000/svg">
<g filter="url(#filter0_d_80_681)">
<path d="M59.8966 242.731C44.7744 245.945 34.394 245.071 28.7555 240.11C23.1674 235.137 20.4943 225.721 20.7363 211.861L36.2365 208.566C36.0306 220.365 37.9628 227.629 42.0333 230.357C46.1046 233.034 52.0973 233.531 60.0112 231.849C67.8748 230.178 73.9245 227.403 78.1605 223.525C82.4469 219.637 84.6346 215.142 84.7237 210.041C84.8325 203.806 82.3377 199.999 77.2393 198.619C72.1409 197.238 64.9493 196.38 55.6644 196.043C43.2686 195.547 34.4329 193.934 29.1572 191.205C23.8814 188.477 21.3191 182.784 21.4702 174.128C21.6087 166.193 24.6758 158.79 30.6715 151.921C36.6681 144.999 46.9755 139.985 61.5936 136.878C76.5142 133.706 86.7924 134.679 92.4282 139.795C98.1154 144.849 100.844 153.971 100.614 167.162L85.1133 170.456C85.3139 158.966 83.3024 151.924 79.0789 149.331C74.9068 146.676 68.9645 146.168 61.2522 147.808C53.3886 149.479 47.3132 152.285 43.0259 156.225C38.7395 160.113 36.5545 164.453 36.4709 169.245C36.3657 175.274 38.8613 179.03 43.9579 180.513C49.1049 181.986 56.2457 182.881 65.3803 183.198C78.0776 183.682 87.0659 185.185 92.3452 187.708C97.6254 190.179 100.189 195.82 100.035 204.63C99.8892 212.978 96.868 220.627 90.9713 227.578C85.0746 234.53 74.7164 239.581 59.8966 242.731ZM153.63 223.115C147.027 224.519 141.533 224.223 137.148 222.229C132.764 220.235 130.641 215.219 130.782 207.181L131.842 146.432L110.898 150.884L111.089 139.909L132.034 135.457L132.395 114.744L147.744 111.482L147.383 132.195L176.947 125.911L176.755 136.886L147.191 143.17L146.196 200.209C146.097 205.825 147.142 209.299 149.328 210.631C151.565 211.952 154.775 212.168 158.959 211.279C162.639 210.497 166.228 209.144 169.727 207.219L169.542 217.808C164.479 220.167 159.175 221.937 153.63 223.115ZM223.664 207.921C210.306 210.76 200.443 209.058 194.073 202.814C187.754 196.56 184.734 185.472 185.011 169.551C185.289 153.629 188.72 141.221 195.304 132.327C201.937 123.422 211.933 117.55 225.291 114.711C238.649 111.872 248.489 113.528 254.809 119.679C261.13 125.83 264.152 136.867 263.874 152.788C263.596 168.709 260.164 181.169 253.579 190.166C246.994 199.163 237.022 205.082 223.664 207.921ZM223.853 197.1C230.86 195.611 236.675 191.885 241.299 185.923C245.924 179.909 248.357 169.972 248.599 156.112C248.84 142.303 246.736 133.382 242.286 129.348C237.838 125.263 232.11 123.965 225.104 125.454C218.097 126.943 212.281 130.695 207.657 136.709C203.033 142.671 200.6 152.557 200.359 166.365C200.117 180.226 202.221 189.199 206.669 193.284C211.119 197.318 216.847 198.59 223.853 197.1ZM277.827 195.715L279.426 104.128L291.372 101.589L294.389 118.658L293.1 192.469L277.827 195.715ZM334.006 183.774L334.918 131.527C335.104 120.861 333.673 113.645 330.625 109.878C327.628 106.1 322.979 104.881 316.678 106.22C310.326 107.57 304.916 111.107 300.447 116.832C296.029 122.493 293.757 128.931 293.632 136.145L286.307 132.85C286.437 125.379 289.862 117.618 296.581 109.568C303.352 101.455 311.955 96.2901 322.389 94.0722C332.773 91.8651 340.045 93.8871 344.204 100.138C348.415 106.328 350.412 115.657 350.194 128.126L349.279 180.528L334.006 183.774ZM365.695 177.038L367.813 55.6953L383.087 52.4488L381.757 128.655L378.235 127.556L419.996 74.1722L437.916 70.3632L406.071 112.399L407.105 109.253L437.601 161.754L421.269 165.226L395.908 120.642L399.39 119.671L380.443 143.488L381.637 135.534L380.969 173.792L365.695 177.038ZM483.21 152.753C472.473 155.035 463.813 154.899 457.228 152.346C450.644 149.742 446.635 143.51 445.2 133.65L458.818 125.982C459.54 133.528 462.014 138.547 466.239 141.037C470.516 143.464 476.308 143.901 483.618 142.348C490.523 140.88 495.737 138.514 499.26 135.25C502.782 131.986 504.578 128.344 504.648 124.325C504.75 118.503 502.146 115.155 496.838 114.281C491.581 113.397 484.985 112.899 477.052 112.789C467.913 112.729 460.503 111.455 454.821 108.967C449.19 106.468 446.451 100.838 446.604 92.0791C446.742 84.1441 449.998 77.446 456.371 71.9846C462.795 66.461 471.501 62.5314 482.49 60.1956C493.378 57.8813 501.962 58.0844 508.243 60.8049C514.524 63.4739 518.313 69.3676 519.61 78.4861L505.994 86.0775C505.255 79.4583 502.85 74.8619 498.777 72.2882C494.704 69.663 489.14 69.1005 482.083 70.6005C475.278 72.0469 470.19 74.3861 466.819 77.618C463.498 80.8392 461.801 84.5881 461.726 88.8648C461.633 94.1719 464.065 97.2999 469.02 98.2486C474.026 99.1352 480.396 99.6294 488.128 99.7312C497.167 99.7606 504.731 100.874 510.82 103.07C516.959 105.205 519.95 110.832 519.79 119.952C519.643 128.402 516.458 135.367 510.235 140.848C504.064 146.267 495.056 150.235 483.21 152.753Z" fill="#3E3E3E"/>
</g>
<defs>
<filter id="filter0_d_80_681" x="0.0312557" y="0.627065" width="541.464" height="268.504" filterUnits="userSpaceOnUse" color-interpolation-filters="sRGB">
<feFlood flood-opacity="0" result="BackgroundImageFix"/>
<feColorMatrix in="SourceAlpha" type="matrix" values="0 0 0 0 0 0 0 0 0 0 0 0 0 0 0 0 0 0 127 0" result="hardAlpha"/>
<feOffset dy="-2.39198"/>
<feGaussianBlur stdDeviation="10.0065"/>
<feComposite in2="hardAlpha" operator="out"/>
<feColorMatrix type="matrix" values="0 0 0 0 0 0 0 0 0 0 0 0 0 0 0 0 0 0 0.25 0"/>
<feBlend mode="normal" in2="BackgroundImageFix" result="effect1_dropShadow_80_681"/>
<feBlend mode="normal" in="SourceGraphic" in2="effect1_dropShadow_80_681" result="shape"/>
</filter>
</defs>
</svg>
